<svg width="368" height="120" viewBox="0 0 368 120" fill="none" xmlns="http://www.w3.org/2000/svg">
<path d="M367.241 0H0V120H367.241V0Z" fill="#F5BA41"/>
<g clip-path="url(#clip0_12_34)">
<g clip-path="url(#clip1_12_34)">
<g clip-path="url(#clip2_12_34)">
<g clip-path="url(#clip3_12_34)">
<g clip-path="url(#clip4_12_34)">
<g clip-path="url(#clip5_12_34)">
<g clip-path="url(#clip6_12_34)">
<path d="M141.963 90.0522C137.975 90.0522 134.23 89.3025 130.727 87.8032C127.212 86.304 124.129 84.2439 121.479 81.6231C118.828 79.0023 116.751 75.9446 115.248 72.4502C113.745 68.9676 112.994 65.2371 112.994 61.2586C112.994 57.292 113.745 53.5673 115.248 50.0847C116.751 46.5903 118.828 43.5327 121.479 40.9119C124.129 38.291 127.212 36.231 130.727 34.7317C134.23 33.2324 137.975 32.4827 141.963 32.4827C145.916 32.4827 149.614 33.2147 153.057 34.6786C156.513 36.1306 159.554 38.1258 162.181 40.6639L160.158 49.1462C158.264 46.124 155.726 43.6979 152.543 41.8681C149.359 40.0382 145.833 39.1233 141.963 39.1233C137.904 39.1233 134.236 40.1209 130.958 42.116C127.691 44.0993 125.094 46.7615 123.165 50.1024C121.236 53.4434 120.272 57.1621 120.272 61.2586C120.272 65.3197 121.236 69.0325 123.165 72.3971C125.094 75.7616 127.691 78.4356 130.958 80.4189C134.236 82.4022 137.904 83.3939 141.963 83.3939C145.868 83.3939 149.407 82.4731 152.578 80.6314C155.738 78.7898 158.264 76.3755 160.158 73.3887L162.181 81.871C159.554 84.3619 156.513 86.3453 153.057 87.821C149.614 89.3084 145.916 90.0522 141.963 90.0522ZM187.565 89.6803C183.991 89.6803 180.725 88.8185 177.766 87.0949C174.808 85.3713 172.459 83.0515 170.719 80.1356C168.968 77.2314 168.092 74.0144 168.092 70.4846C168.092 66.9193 168.968 63.6905 170.719 60.7982C172.459 57.9177 174.808 55.6156 177.766 53.892C180.725 52.1684 183.991 51.3066 187.565 51.3066C191.186 51.3066 194.464 52.1684 197.399 53.892C200.345 55.6156 202.689 57.9177 204.428 60.7982C206.18 63.6905 207.055 66.9193 207.055 70.4846C207.055 74.0144 206.18 77.2314 204.428 80.1356C202.689 83.0515 200.345 85.3713 197.399 87.0949C194.464 88.8185 191.186 89.6803 187.565 89.6803ZM187.565 83.3939C189.955 83.3939 192.115 82.8154 194.044 81.6585C195.973 80.4897 197.511 78.9314 198.659 76.9835C199.819 75.0356 200.399 72.8693 200.399 70.4846C200.399 68.1117 199.819 65.9513 198.659 64.0034C197.511 62.0555 195.973 60.4972 194.044 59.3284C192.115 58.1597 189.955 57.5753 187.565 57.5753C185.186 57.5753 183.032 58.1597 181.104 59.3284C179.175 60.4972 177.63 62.0555 176.471 64.0034C175.323 65.9513 174.749 68.1117 174.749 70.4846C174.749 72.8693 175.323 75.0356 176.471 76.9835C177.63 78.9314 179.175 80.4897 181.104 81.6585C183.032 82.8154 185.186 83.3939 187.565 83.3939ZM233.184 89.6803C229.611 89.6803 226.344 88.8185 223.386 87.0949C220.427 85.3713 218.073 83.0515 216.321 80.1356C214.57 77.2314 213.694 74.0144 213.694 70.4846C213.694 66.9193 214.57 63.6905 216.321 60.7982C218.073 57.9177 220.427 55.6156 223.386 53.892C226.344 52.1684 229.611 51.3066 233.184 51.3066C236.794 51.3066 240.066 52.1684 243.001 53.892C245.947 55.6156 248.29 57.9177 250.03 60.7982C251.781 63.6905 252.657 66.9193 252.657 70.4846C252.657 74.0144 251.781 77.2314 250.03 80.1356C248.29 83.0515 245.947 85.3713 243.001 87.0949C240.066 88.8185 236.794 89.6803 233.184 89.6803ZM233.184 83.3939C235.563 83.3939 237.717 82.8154 239.646 81.6585C241.575 80.4897 243.119 78.9314 244.279 76.9835C245.427 75.0356 246 72.8693 246 70.4846C246 68.1117 245.427 65.9513 244.279 64.0034C243.119 62.0555 241.575 60.4972 239.646 59.3284C237.717 58.1597 235.563 57.5753 233.184 57.5753C230.794 57.5753 228.634 58.1597 226.705 59.3284C224.776 60.4972 223.238 62.0555 222.09 64.0034C220.93 65.9513 220.351 68.1117 220.351 70.4846C220.351 72.8693 220.93 75.0356 222.09 76.9835C223.238 78.9314 224.776 80.4897 226.705 81.6585C228.634 82.8154 230.794 83.3939 233.184 83.3939ZM294.442 88.9366H285.993L269.29 68.6429L283.029 52.0503H290.732L277.242 68.1471L294.442 88.9366ZM268.544 88.9366H261.887V29.915H268.544V88.9366ZM310.329 88.9366H303.318V33.5984H310.329V88.9366ZM335.731 88.9366H329.074V57.5753H320.678V52.0503H329.252V39.7431H335.536V52.0503H344.73V57.5753H335.731V88.9366Z" fill="white"/>
</g>
</g>
</g>
</g>
<g clip-path="url(#clip7_12_34)">
<g clip-path="url(#clip8_12_34)">
<path d="M45.1012 98.214C32.402 98.214 22.1078 87.9446 22.1078 75.2758V44.6916C22.1078 32.0228 32.402 21.7534 45.1012 21.7534H75.7589C88.4581 21.7534 98.7523 32.0228 98.7523 44.6916V75.2758C98.7523 87.9446 88.4581 98.214 75.7589 98.214H45.1012Z" fill="white"/>
<g clip-path="url(#clip9_12_34)">
<g clip-path="url(#clip10_12_34)">
<path d="M46.7361 62.4042C38.19 61.6584 34.2847 51.3128 40.4379 45.2478C43.5838 42.147 48.4197 41.4001 52.3765 43.4504C58.1758 36.0551 70.0322 38.2527 72.7431 47.1743C81.7178 46.2212 87.0182 57.0265 80.5793 63.3728C78.8174 65.1096 76.397 66.1672 73.7162 66.1565L73.7156 76.5749C73.6652 82.4396 46.7877 82.4396 46.7367 76.5749L46.7361 62.4042ZM41.9325 57.9822C43.1913 59.223 44.8668 60.0555 46.7361 60.2618V56.5116C46.7361 55.108 48.874 55.108 48.874 56.5116V74.0093C53.8748 71.4774 66.5781 71.4774 71.5783 74.0093V60.7203C71.5783 59.3167 73.7156 59.3167 73.7162 60.7203V64.0237C80.4735 64.0505 83.7719 56.0391 79.0848 51.42C76.361 48.7354 72.0079 48.5195 69.0317 50.9057C67.8519 51.8513 65.0787 49.5492 70.6546 47.6313C68.361 40.5435 58.9105 38.7965 54.1616 44.6258C56.0358 46.1848 57.3338 48.3159 57.7247 50.8232C57.9401 52.2032 55.8365 52.5311 55.6207 51.1478C54.6288 44.7849 46.6137 42.1496 41.9325 46.7639C38.7936 49.8578 38.7941 54.8883 41.9325 57.9822ZM68.6939 75.2061C63.9375 73.9139 56.5148 73.9144 51.7584 75.2061C47.9407 76.2427 47.9402 76.8438 51.7578 77.8805C56.5148 79.1721 63.937 79.1727 68.6945 77.8805C72.5116 76.8438 72.5127 76.2427 68.6939 75.2061Z" fill="#F5BA41"/>
</g>
</g>
</g>
</g>
</g>
</g>
</g>
<defs>
<clipPath id="clip0_12_34">
<rect width="323.534" height="76.4938" fill="white" transform="translate(21.6574 21.7368)"/>
</clipPath>
<clipPath id="clip1_12_34">
<rect width="322.634" height="76.4608" fill="white" transform="translate(22.1078 21.7534)"/>
</clipPath>
<clipPath id="clip2_12_34">
<rect width="322.634" height="76.4608" fill="white" transform="translate(22.1078 21.7534)"/>
</clipPath>
<clipPath id="clip3_12_34">
<rect width="231.758" height="60.1371" fill="white" transform="translate(112.983 29.915)"/>
</clipPath>
<clipPath id="clip4_12_34">
<rect width="231.758" height="60.1371" fill="white" transform="translate(112.983 29.915)"/>
</clipPath>
<clipPath id="clip5_12_34">
<rect width="231.758" height="60.1371" fill="white" transform="translate(112.983 29.915)"/>
</clipPath>
<clipPath id="clip6_12_34">
<rect width="231.758" height="60.1371" fill="white" transform="translate(112.983 29.915)"/>
</clipPath>
<clipPath id="clip7_12_34">
<rect width="76.6446" height="76.4608" fill="white" transform="translate(22.1078 21.7534)"/>
</clipPath>
<clipPath id="clip8_12_34">
<rect width="76.6446" height="76.4608" fill="white" transform="translate(22.1078 21.7534)"/>
</clipPath>
<clipPath id="clip9_12_34">
<rect width="45.9867" height="41.9794" fill="white" transform="translate(37.4368 38.9941)"/>
</clipPath>
<clipPath id="clip10_12_34">
<rect width="45.9867" height="41.9794" fill="white" transform="translate(37.4368 38.9941)"/>
</clipPath>
</defs>
</svg>
