<svg width="60" height="60" viewBox="0 0 60 60" fill="none" xmlns="http://www.w3.org/2000/svg">
<path d="M42 24C42 27.1826 40.7357 30.2348 38.4853 32.4853C36.2348 34.7357 33.1826 36 30 36C26.8174 36 23.7652 34.7357 21.5147 32.4853C19.2643 30.2348 18 27.1826 18 24C18 20.8174 19.2643 17.7652 21.5147 15.5147C23.7652 13.2643 26.8174 12 30 12C33.1826 12 36.2348 13.2643 38.4853 15.5147C40.7357 17.7652 42 20.8174 42 24Z" fill="white"/>
<path fill-rule="evenodd" clip-rule="evenodd" d="M28.776 59.976C12.7755 59.334 0 46.158 0 30C0 13.431 13.431 0 30 0C46.569 0 60 13.431 60 30C60 46.569 46.569 60 30 60C29.863 60.0009 29.726 60.0009 29.589 60C29.3175 60 29.046 59.991 28.776 59.976ZM10.749 48.93C10.5247 48.2859 10.4483 47.5995 10.5256 46.9218C10.6029 46.2441 10.8318 45.5925 11.1954 45.0154C11.5589 44.4383 12.0478 43.9505 12.6257 43.5882C13.2036 43.2258 13.8556 42.9983 14.5335 42.9225C26.2275 41.628 33.8445 41.745 45.4815 42.9495C46.1603 43.0202 46.8139 43.2448 47.3928 43.6063C47.9716 43.9678 48.4603 44.4566 48.8216 45.0356C49.183 45.6145 49.4074 46.2682 49.478 46.947C49.5485 47.6258 49.4631 48.3117 49.2285 48.9525C54.2159 43.9063 57.0089 37.0949 57 30C57 15.0885 44.9115 3 30 3C15.0885 3 3 15.0885 3 30C3 37.374 5.9565 44.058 10.749 48.93Z" fill="white"/>
</svg>