<svg width="70" height="70" viewBox="0 0 70 70" fill="none" xmlns="http://www.w3.org/2000/svg">
<path d="M36.6993 31.5377C36.6224 31.113 36.3894 30.7325 36.046 30.4712C35.7026 30.2098 35.2737 30.0864 34.8439 30.1254C34.4142 30.1644 34.0145 30.3629 33.7238 30.6818C33.433 31.0008 33.2722 31.417 33.273 31.8485V47.3982L33.3006 47.7091C33.3775 48.1337 33.6106 48.5142 33.954 48.7756C34.2974 49.0369 34.7262 49.1603 35.156 49.1213C35.5858 49.0823 35.9854 48.8838 36.2762 48.5649C36.5669 48.246 36.7278 47.8298 36.727 47.3982V31.8485L36.6993 31.5377ZM37.7597 24.0771C37.7597 23.3901 37.4868 22.7312 37.001 22.2454C36.5152 21.7596 35.8563 21.4867 35.1692 21.4867C34.4822 21.4867 33.8233 21.7596 33.3375 22.2454C32.8517 22.7312 32.5788 23.3901 32.5788 24.0771C32.5788 24.7642 32.8517 25.4231 33.3375 25.9089C33.8233 26.3947 34.4822 26.6676 35.1692 26.6676C35.8563 26.6676 36.5152 26.3947 37.001 25.9089C37.4868 25.4231 37.7597 24.7642 37.7597 24.0771ZM62.6316 35.3025C62.6316 27.9741 59.7204 20.9459 54.5385 15.764C49.3565 10.5821 42.3283 7.6709 35 7.6709C27.6716 7.6709 20.6434 10.5821 15.4615 15.764C10.2796 20.9459 7.36841 27.9741 7.36841 35.3025C7.36841 42.6308 10.2796 49.659 15.4615 54.841C20.6434 60.0229 27.6716 62.9341 35 62.9341C42.3283 62.9341 49.3565 60.0229 54.5385 54.841C59.7204 49.659 62.6316 42.6308 62.6316 35.3025ZM10.8224 35.3025C10.8224 32.1274 11.4477 28.9835 12.6628 26.0501C13.8778 23.1167 15.6587 20.4514 17.9038 18.2063C20.1489 15.9612 22.8142 14.1803 25.7476 12.9653C28.681 11.7502 31.8249 11.1248 35 11.1248C38.175 11.1248 41.319 11.7502 44.2524 12.9653C47.1857 14.1803 49.8511 15.9612 52.0962 18.2063C54.3413 20.4514 56.1222 23.1167 57.3372 26.0501C58.5522 28.9835 59.1776 32.1274 59.1776 35.3025C59.1776 41.7148 56.6303 47.8645 52.0962 52.3986C47.562 56.9328 41.4123 59.4801 35 59.4801C28.5877 59.4801 22.438 56.9328 17.9038 52.3986C13.3696 47.8645 10.8224 41.7148 10.8224 35.3025Z" fill="black"/>
</svg>
