<svg width="92" height="92" viewBox="0 0 92 92" fill="none" xmlns="http://www.w3.org/2000/svg">
<path d="M49.8334 77.7017L49.611 69H44.0834C36.0922 69 29.3033 66.2055 23.7169 60.6165C18.1279 55.0301 15.3334 48.2412 15.3334 40.25C15.3334 32.2588 18.1279 25.4699 23.7169 19.8835C29.3033 14.2945 36.0922 11.5 44.0834 11.5C48.0777 11.5 51.819 12.2488 55.3074 13.7463C58.7932 15.2413 61.8381 17.2896 64.4422 19.8912C67.0438 22.4953 69.092 25.5402 70.587 29.026C72.0846 32.5143 72.8334 36.2557 72.8334 40.25C72.8334 44.1574 72.2597 47.9103 71.1122 51.5085C69.9622 55.1042 68.3752 58.5043 66.3512 61.709C64.3221 64.9137 61.8943 67.8653 59.0679 70.564C56.2414 73.2627 53.1633 75.6406 49.8334 77.6978M53.6667 70.3417C58.2028 66.5083 61.893 62.0208 64.7374 56.879C67.5817 51.7372 69.0026 46.1942 69 40.25C69 33.2861 66.5876 27.393 61.7627 22.5707C56.9378 17.7483 51.0447 15.3359 44.0834 15.3333C37.1195 15.3333 31.2264 17.7458 26.404 22.5707C21.5817 27.3956 19.1693 33.2887 19.1667 40.25C19.1667 47.2139 21.5792 53.1083 26.404 57.9332C31.2289 62.7581 37.122 65.1692 44.0834 65.1667H53.6667V70.3417ZM44.2099 59.6888C45.0021 59.6888 45.6704 59.4167 46.2147 58.8723C46.759 58.3254 47.0312 57.6572 47.0312 56.8675C47.0312 56.0753 46.759 55.407 46.2147 54.8627C45.6678 54.3158 44.9995 54.0423 44.2099 54.0423C43.4177 54.0423 42.7494 54.3158 42.205 54.8627C41.6582 55.407 41.3847 56.0753 41.3847 56.8675C41.3847 57.6597 41.6582 58.328 42.205 58.8723C42.7494 59.4167 43.4177 59.6888 44.2099 59.6888ZM42.5347 48.4763H45.9272C46.0243 46.9047 46.3259 45.6614 46.8319 44.7465C47.3379 43.8316 48.539 42.4261 50.4352 40.5298C51.5366 39.4309 52.4094 38.3078 53.0534 37.1603C53.6974 36.0154 54.0194 34.7006 54.0194 33.2158C54.0194 30.4507 53.0649 28.2785 51.1559 26.6992C49.2469 25.1173 46.9379 24.3263 44.229 24.3263C41.8626 24.3263 39.8565 24.9742 38.2107 26.2698C36.5624 27.5655 35.3549 29.1103 34.5882 30.9043L37.743 32.1272C38.2593 30.9925 39.0132 29.9588 40.0047 29.026C40.9988 28.0958 42.4069 27.6307 44.229 27.6307C46.3987 27.6307 47.9998 28.2197 49.0322 29.3978C50.0672 30.5785 50.5847 31.8665 50.5847 33.2618C50.5847 34.5447 50.2525 35.6296 49.588 36.5163C48.9236 37.4031 48.0713 38.3678 47.0312 39.4105C45.1912 41.0307 43.9811 42.4874 43.401 43.7805C42.8235 45.0685 42.5347 46.6338 42.5347 48.4763Z" fill="black"/>
</svg>
