<svg width="71" height="71" viewBox="0 0 71 71" fill="none" xmlns="http://www.w3.org/2000/svg">
<g clip-path="url(#clip0_25_268)">
<path d="M24.4063 13.3125V4.4375C24.4063 3.84905 24.64 3.2847 25.0561 2.86861C25.4722 2.45251 26.0366 2.21875 26.625 2.21875C27.2135 2.21875 27.7778 2.45251 28.1939 2.86861C28.61 3.2847 28.8438 3.84905 28.8438 4.4375V13.3125C28.8438 13.9009 28.61 14.4653 28.1939 14.8814C27.7778 15.2975 27.2135 15.5312 26.625 15.5312C26.0366 15.5312 25.4722 15.2975 25.0561 14.8814C24.64 14.4653 24.4063 13.9009 24.4063 13.3125ZM35.5 15.5312C36.0885 15.5312 36.6528 15.2975 37.0689 14.8814C37.485 14.4653 37.7188 13.9009 37.7188 13.3125V4.4375C37.7188 3.84905 37.485 3.2847 37.0689 2.86861C36.6528 2.45251 36.0885 2.21875 35.5 2.21875C34.9116 2.21875 34.3472 2.45251 33.9311 2.86861C33.515 3.2847 33.2813 3.84905 33.2813 4.4375V13.3125C33.2813 13.9009 33.515 14.4653 33.9311 14.8814C34.3472 15.2975 34.9116 15.5312 35.5 15.5312ZM44.375 15.5312C44.9635 15.5312 45.5278 15.2975 45.9439 14.8814C46.36 14.4653 46.5938 13.9009 46.5938 13.3125V4.4375C46.5938 3.84905 46.36 3.2847 45.9439 2.86861C45.5278 2.45251 44.9635 2.21875 44.375 2.21875C43.7866 2.21875 43.2222 2.45251 42.8061 2.86861C42.39 3.2847 42.1563 3.84905 42.1563 4.4375V13.3125C42.1563 13.9009 42.39 14.4653 42.8061 14.8814C43.2222 15.2975 43.7866 15.5312 44.375 15.5312ZM70.1125 28.4L62.125 34.3906V51.0312C62.125 53.385 61.19 55.6424 59.5256 57.3068C57.8612 58.9712 55.6038 59.9062 53.25 59.9062H17.75C15.3962 59.9062 13.1388 58.9712 11.4744 57.3068C9.81005 55.6424 8.87501 53.385 8.87501 51.0312V34.3906L0.887509 28.4C0.41675 28.0469 0.105528 27.5213 0.0223086 26.9388C-0.0609106 26.3562 0.0906896 25.7645 0.443759 25.2937C0.796829 24.823 1.32245 24.5118 1.90498 24.4286C2.48752 24.3453 3.07925 24.4969 3.55001 24.85L8.87501 28.8438V24.4062C8.87501 23.2294 9.34253 22.1007 10.1747 21.2685C11.0069 20.4363 12.1356 19.9688 13.3125 19.9688H57.6875C58.8644 19.9688 59.9931 20.4363 60.8253 21.2685C61.6575 22.1007 62.125 23.2294 62.125 24.4062V28.8438L67.45 24.85C67.9208 24.4969 68.5125 24.3453 69.095 24.4286C69.6776 24.5118 70.2032 24.823 70.5563 25.2937C70.9093 25.7645 71.0609 26.3562 70.9777 26.9388C70.8945 27.5213 70.5833 28.0469 70.1125 28.4ZM57.6875 24.4062H13.3125V51.0312C13.3125 52.2081 13.78 53.3368 14.6122 54.169C15.4444 55.0012 16.5731 55.4688 17.75 55.4688H53.25C54.4269 55.4688 55.5556 55.0012 56.3878 54.169C57.22 53.3368 57.6875 52.2081 57.6875 51.0312V24.4062Z" fill="black"/>
</g>
<defs>
<clipPath id="clip0_25_268">
<rect width="71" height="71" fill="white"/>
</clipPath>
</defs>
</svg>
