<svg width="66" height="66" viewBox="0 0 66 66" fill="none" xmlns="http://www.w3.org/2000/svg">
<g clip-path="url(#clip0_25_276)">
<path d="M0.434204 6.84298C0.434204 6.30317 0.648643 5.78547 1.03035 5.40376C1.41205 5.02206 1.92975 4.80762 2.46957 4.80762H8.57565C9.02966 4.80774 9.4706 4.95966 9.82834 5.23921C10.1861 5.51877 10.4401 5.9099 10.55 6.35042L12.1986 12.9491H59.4597C59.7586 12.9493 60.0537 13.0154 60.3241 13.1426C60.5946 13.2698 60.8337 13.455 61.0245 13.6851C61.2152 13.9151 61.353 14.1843 61.428 14.4736C61.503 14.7629 61.5134 15.0652 61.4584 15.3589L55.3523 47.9247C55.265 48.3911 55.0175 48.8124 54.6525 49.1157C54.2876 49.4189 53.8281 49.5851 53.3536 49.5856H16.7171C16.2426 49.5851 15.7831 49.4189 15.4182 49.1157C15.0532 48.8124 14.8057 48.3911 14.7184 47.9247L8.61636 15.42L6.98807 8.87834H2.46957C1.92975 8.87834 1.41205 8.6639 1.03035 8.2822C0.648643 7.90049 0.434204 7.38279 0.434204 6.84298ZM13.0616 17.0198L18.4065 45.5149H51.6643L57.0091 17.0198H13.0616ZM20.7878 49.5856C18.6286 49.5856 16.5578 50.4433 15.031 51.9702C13.5041 53.497 12.6464 55.5678 12.6464 57.727C12.6464 59.8863 13.5041 61.9571 15.031 63.4839C16.5578 65.0107 18.6286 65.8685 20.7878 65.8685C22.9471 65.8685 25.0179 65.0107 26.5447 63.4839C28.0715 61.9571 28.9293 59.8863 28.9293 57.727C28.9293 55.5678 28.0715 53.497 26.5447 51.9702C25.0179 50.4433 22.9471 49.5856 20.7878 49.5856ZM49.2829 49.5856C47.1236 49.5856 45.0528 50.4433 43.526 51.9702C41.9992 53.497 41.1414 55.5678 41.1414 57.727C41.1414 59.8863 41.9992 61.9571 43.526 63.4839C45.0528 65.0107 47.1236 65.8685 49.2829 65.8685C51.4421 65.8685 53.5129 65.0107 55.0398 63.4839C56.5666 61.9571 57.4243 59.8863 57.4243 57.727C57.4243 55.5678 56.5666 53.497 55.0398 51.9702C53.5129 50.4433 51.4421 49.5856 49.2829 49.5856ZM20.7878 53.6563C21.8674 53.6563 22.9029 54.0852 23.6663 54.8486C24.4297 55.612 24.8585 56.6474 24.8585 57.727C24.8585 58.8067 24.4297 59.8421 23.6663 60.6055C22.9029 61.3689 21.8674 61.7978 20.7878 61.7978C19.7082 61.7978 18.6728 61.3689 17.9094 60.6055C17.146 59.8421 16.7171 58.8067 16.7171 57.727C16.7171 56.6474 17.146 55.612 17.9094 54.8486C18.6728 54.0852 19.7082 53.6563 20.7878 53.6563ZM49.2829 53.6563C50.3625 53.6563 51.3979 54.0852 52.1613 54.8486C52.9247 55.612 53.3536 56.6474 53.3536 57.727C53.3536 58.8067 52.9247 59.8421 52.1613 60.6055C51.3979 61.3689 50.3625 61.7978 49.2829 61.7978C48.2033 61.7978 47.1679 61.3689 46.4045 60.6055C45.641 59.8421 45.2122 58.8067 45.2122 57.727C45.2122 56.6474 45.641 55.612 46.4045 54.8486C47.1679 54.0852 48.2033 53.6563 49.2829 53.6563Z" fill="black"/>
</g>
<defs>
<clipPath id="clip0_25_276">
<rect width="65.1316" height="65.1316" fill="white" transform="translate(0.434204 0.736816)"/>
</clipPath>
</defs>
</svg>
