<svg width="92" height="92" viewBox="0 0 92 92" fill="none" xmlns="http://www.w3.org/2000/svg">
<path d="M31.311 63.469C32.1357 63.469 32.8254 63.1903 33.3802 62.633C33.9351 62.0731 34.2125 61.3796 34.2125 60.5524C34.2125 59.7252 33.9351 59.0354 33.3802 58.4831C32.8204 57.9283 32.1268 57.6509 31.2996 57.6509C30.4725 57.6509 29.7814 57.9308 29.2266 58.4907C28.6718 59.0481 28.3944 59.7403 28.3944 60.5675C28.3944 61.3922 28.6743 62.0819 29.2342 62.6368C29.7915 63.1916 30.4838 63.469 31.311 63.469ZM31.311 49.2113C32.1357 49.2113 32.8254 48.9326 33.3802 48.3752C33.9351 47.8154 34.2125 47.1218 34.2125 46.2947C34.2125 45.4675 33.9351 44.7777 33.3802 44.2254C32.8204 43.6706 32.1268 43.3932 31.2996 43.3932C30.4725 43.3932 29.7814 43.6718 29.2266 44.2292C28.6718 44.7891 28.3944 45.4826 28.3944 46.3098C28.3944 47.137 28.6743 47.8267 29.2342 48.379C29.7915 48.9339 30.4838 49.2113 31.311 49.2113ZM31.311 34.9535C32.1357 34.9535 32.8254 34.6736 33.3802 34.1137C33.9351 33.5564 34.2125 32.8641 34.2125 32.0369C34.2125 31.2123 33.9351 30.5225 33.3802 29.9677C32.8204 29.4129 32.1268 29.1354 31.2996 29.1354C30.4725 29.1354 29.7814 29.4141 29.2266 29.9715C28.6718 30.5313 28.3944 31.2249 28.3944 32.0521C28.3944 32.8792 28.6743 33.569 29.2342 34.1213C29.7915 34.6761 30.4838 34.9535 31.311 34.9535ZM42.9434 62.4552H63.3143V58.6723H42.9434V62.4552ZM42.9434 48.1937H63.3143V44.4108H42.9434V48.1937ZM42.9434 33.9322H63.3143V30.1493H42.9434V33.9322ZM21.8462 76.5654C20.1061 76.5654 18.6534 75.9828 17.4883 74.8177C16.3206 73.65 15.7368 72.1961 15.7368 70.456V22.1484C15.7368 20.4083 16.3206 18.9557 17.4883 17.7905C18.6534 16.6229 20.1061 16.0391 21.8462 16.0391H70.1538C71.8939 16.0391 73.3465 16.6229 74.5117 17.7905C75.6793 18.9557 76.2631 20.4083 76.2631 22.1484V70.456C76.2631 72.1961 75.6806 73.6488 74.5154 74.8139C73.3478 75.9816 71.8939 76.5654 70.1538 76.5654H21.8462ZM21.8462 72.7825H70.1538C70.7338 72.7825 71.2672 72.5404 71.7539 72.0562C72.2381 71.5694 72.4802 71.036 72.4802 70.456V22.1484C72.4802 21.5684 72.2381 21.035 71.7539 20.5483C71.2672 20.0641 70.7338 19.822 70.1538 19.822H21.8462C21.2661 19.822 20.7328 20.0641 20.246 20.5483C19.7618 21.035 19.5197 21.5684 19.5197 22.1484V70.456C19.5197 71.036 19.7618 71.5694 20.246 72.0562C20.7328 72.5404 21.2661 72.7825 21.8462 72.7825Z" fill="black"/>
</svg>
