<svg width="75" height="75" viewBox="0 0 75 75" fill="none" xmlns="http://www.w3.org/2000/svg">
<path d="M50 50V25M37.5 50V34.375M25 50V40.625" stroke="black" stroke-width="4" stroke-linecap="round" stroke-linejoin="round"/>
<path d="M9.375 63.75V11.25C9.375 10.7527 9.57254 10.2758 9.92417 9.92417C10.2758 9.57254 10.7527 9.375 11.25 9.375H63.75C64.2473 9.375 64.7242 9.57254 65.0758 9.92417C65.4275 10.2758 65.625 10.7527 65.625 11.25V63.75C65.625 64.2473 65.4275 64.7242 65.0758 65.0758C64.7242 65.4275 64.2473 65.625 63.75 65.625H11.25C10.7527 65.625 10.2758 65.4275 9.92417 65.0758C9.57254 64.7242 9.375 64.2473 9.375 63.75Z" stroke="black" stroke-width="4"/>
</svg>
